<svg width="18" height="18" viewBox="0 0 18 18" fill="none" xmlns="http://www.w3.org/2000/svg">
<g clip-path="url(#clip0)">
<path d="M14.7649 3.50667H13.0463C12.9606 2.55037 12.497 1.65926 11.7472 1.00983C10.9974 0.360401 10.0162 0 8.99786 0C7.97952 0 6.9983 0.360401 6.24853 1.00983C5.49876 1.65926 5.03511 2.55037 4.9494 3.50667H3.23082C2.59352 3.50667 1.98232 3.74526 1.53168 4.16995C1.08105 4.59464 0.827881 5.17065 0.827881 5.77125L0.827881 15.7354C0.827881 16.336 1.08105 16.912 1.53168 17.3367C1.98232 17.7614 2.59352 18 3.23082 18H14.7649C15.4022 18 16.0134 17.7614 16.464 17.3367C16.9147 16.912 17.1678 16.336 17.1678 15.7354V5.77125C17.1678 5.17065 16.9147 4.59464 16.464 4.16995C16.0134 3.74526 15.4022 3.50667 14.7649 3.50667V3.50667ZM8.99786 0.902402C9.76165 0.904633 10.498 1.17107 11.0671 1.65115C11.6362 2.13122 11.9985 2.7915 12.0852 3.50667H5.91057C5.99724 2.7915 6.35951 2.13122 6.92862 1.65115C7.49774 1.17107 8.23407 0.904633 8.99786 0.902402ZM16.2067 15.7354C16.2067 16.0958 16.0548 16.4414 15.7844 16.6962C15.514 16.951 15.1473 17.0942 14.7649 17.0942H3.23082C2.84844 17.0942 2.48172 16.951 2.21134 16.6962C1.94095 16.4414 1.78906 16.0958 1.78906 15.7354V5.77125C1.78906 5.41089 1.94095 5.06529 2.21134 4.81047C2.48172 4.55566 2.84844 4.4125 3.23082 4.4125H14.7649C15.1473 4.4125 15.514 4.55566 15.7844 4.81047C16.0548 5.06529 16.2067 5.41089 16.2067 5.77125V15.7354Z" fill="white"/>
</g>
<defs>
<clipPath id="clip0">
<rect width="18" height="18" fill="white"/>
</clipPath>
</defs>
</svg>
