<svg width="22" height="22" viewBox="0 0 22 22" fill="none" xmlns="http://www.w3.org/2000/svg">
<path d="M21.3734 6.63464C20.7563 4.72132 19.571 3.04139 17.9754 1.81856C17.5149 1.49429 16.9703 1.31053 16.4076 1.28956C15.2562 1.1712 14.1012 1.06143 12.9452 1.02328C12.4529 1.00704 11.9602 0.999297 11.467 1.00005C10.974 1.00001 10.4813 1.00775 9.98886 1.02328C8.83286 1.06143 7.67779 1.1712 6.52645 1.28956C5.96369 1.31053 5.41909 1.49429 4.95867 1.81856C3.38388 3.06135 2.20347 4.73433 1.56057 6.63464C1.10719 7.94962 0.925804 9.34303 1.02744 10.7303C1.15099 12.6394 1.79696 14.4779 2.89477 16.0448C3.8332 17.4208 5.09135 18.5487 6.56136 19.3318C7.0139 19.5952 7.49362 19.8089 7.99214 19.9692C9.12727 20.2574 10.2961 20.3913 11.467 20.3673C12.6379 20.3913 13.8067 20.2574 14.9418 19.9691C15.4403 19.8089 15.92 19.5952 16.3726 19.3317C17.8426 18.5487 19.1007 17.4208 20.0392 16.0447C21.137 14.4779 21.7829 12.6394 21.9065 10.7302C22.0225 9.34263 21.8408 7.94627 21.3734 6.63464V6.63464ZM11.467 3.04844C8.40458 3.04844 5.92198 2.67079 5.92198 2.20494C5.92198 1.73909 8.40454 1.36145 11.467 1.36145C14.5294 1.36145 17.0119 1.73909 17.0119 2.20494C17.0119 2.67079 14.5294 3.04844 11.467 3.04844V3.04844Z" fill="#1D1D1F"/>
<path d="M11.467 2.63149C13.7064 2.63149 15.5217 2.44052 15.5217 2.20495C15.5217 1.96938 13.7064 1.77841 11.467 1.77841C9.22769 1.77841 7.41235 1.96938 7.41235 2.20495C7.41235 2.44052 9.22769 2.63149 11.467 2.63149Z" fill="#1D1D1F"/>
</svg>
