<svg width="18" height="18" viewBox="0 0 18 18" fill="none" xmlns="http://www.w3.org/2000/svg">
<path d="M17.535 16.7531L12.749 11.9651C13.9356 10.576 14.5381 8.78133 14.4303 6.95759C14.3225 5.13385 13.5128 3.4227 12.1708 2.18299C10.8289 0.943284 9.05907 0.271337 7.23252 0.308071C5.40597 0.344806 3.6646 1.08737 2.3736 2.38003C1.0826 3.67269 0.342279 5.41502 0.307894 7.24161C0.273509 9.06821 0.947732 10.8372 2.18916 12.1775C3.43059 13.5178 5.14279 14.3254 6.96667 14.4309C8.79054 14.5363 10.5844 13.9314 11.972 12.7431L16.757 17.5311C16.8071 17.5861 16.8679 17.6303 16.9355 17.661C17.0032 17.6918 17.0764 17.7086 17.1508 17.7103C17.2251 17.712 17.299 17.6986 17.368 17.671C17.437 17.6433 17.4997 17.6019 17.5523 17.5494C17.6048 17.4968 17.6462 17.4341 17.6739 17.3651C17.7015 17.2961 17.7149 17.2222 17.7132 17.1478C17.7115 17.0735 17.6948 17.0003 17.664 16.9326C17.6332 16.865 17.589 16.8042 17.534 16.7541L17.535 16.7531ZM1.45003 7.39013C1.45162 6.21446 1.80169 5.06565 2.456 4.08889C3.11032 3.11213 4.03951 2.35126 5.12614 1.90244C6.21276 1.45363 7.40805 1.33702 8.56094 1.56735C9.71382 1.79768 10.7725 2.36462 11.6033 3.1965C12.4341 4.02838 12.9996 5.08787 13.2284 6.24106C13.4571 7.39425 13.3389 8.58938 12.8887 9.6754C12.4384 10.7614 11.6763 11.6896 10.6986 12.3426C9.72098 12.9956 8.5717 13.3441 7.39603 13.3441C5.81857 13.3412 4.30666 12.7127 3.19197 11.5965C2.07728 10.4803 1.45083 8.9676 1.45003 7.39013V7.39013Z" fill="white"/>
</svg>
